Movies : Romance : DVD Rip : English

 
http://www.imdb.com/title/tt0030775/


Two Alaskan salmon fishermen, Tyler Dawson (skipper of the "Who Cares") and Jim Kimmerlee of the "Old Reliable," are lifelong pals. Their romantic rivalry over young Dian ends amicably. But a more serious rift, with violent consequences, arises when Tyler befriends Russian fish pirates while Jim finds himself aligned with local vigilantes.

Enjoy.



h2a7cGeneral
Complete name : Z:SeedboxSPAWN OF THE NORTH (1938)Spawn of the North.avi
Format : AVI
Format/Info : Audio Video Interleave
File size : 699 MiB
Duration : 1h 49mn
Overall bit rate : 891 Kbps

Video
Format : MPEG-4 Visual
Format profile : Streaming Video@L1
Format settings, BVOP : Yes
Format settings, QPel : No
Format settings, GMC : No warppoints
Format settings, Matrix : Custom
Codec ID : XVID
Codec ID/Hint : XviD
Duration : 1h 49mn
Bit rate : 775 Kbps
Width : 512 pixels
Height : 384 pixels
Display aspect ratio : 4/3
Frame rate : 23.976 fps
Resolution : 24 bits
Colorimetry : 4:2:0
Scan type : Progressive
Bits/(Pixel*Frame) : 0.164
Stream size : 608 MiB (87%)
Writing library : XviD 50

Audio
Format : MPEG Audio
Format version : Version 1
Format profile : Layer 3
Codec ID : 55
Codec ID/Hint : MP3
Duration : 1h 49mn
Bit rate mode : Variable
Bit rate : 103 Kbps
Channel(s) : 2 channels
Sampling rate : 48.0 KHz
Resolution : 16 bits
Stream size : 80.9 MiB (12%)
Alignment : Aligned on interleaves
Interleave, duration : 24 ms (0.58 video frame)